<svg width="471" height="24" viewBox="0 0 471 24" fill="none" xmlns="http://www.w3.org/2000/svg">
<path d="M2.47682 19.9171L0.900391 5.72929L16.6647 12.035L2.47682 19.9171Z" fill="#96D5AD"/>
<path d="M32.429 17.5525L45.0404 1L52.9225 18.3407L32.429 17.5525Z" fill="#96D5AD"/>
<path d="M69.475 19.9171L68.6868 2.57643L84.4511 9.67036L69.475 19.9171Z" fill="#96D5AD"/>
<path d="M112.827 2.57643L120.709 23.07L99.4272 19.1289L112.827 2.57643Z" fill="#96D5AD"/>
<path d="M158.543 15.1879L139.626 21.4936L143.567 2.57643L158.543 15.1879Z" fill="#96D5AD"/>
<path d="M177.46 19.9171L174.308 5.72929L186.919 10.4586L177.46 19.9171Z" fill="#96D5AD"/>
<path d="M208.989 23.07L211.354 2.57643L226.33 13.6114L208.989 23.07Z" fill="#96D5AD"/>
<path d="M244.459 22.2818L250.764 2.57643L264.952 18.3407L244.459 22.2818Z" fill="#96D5AD"/>
<path d="M283.869 20.7054L283.081 5.72929L298.845 12.035L283.869 20.7054Z" fill="#96D5AD"/>
<path d="M314.61 17.5525L327.221 1L335.103 18.3407L314.61 17.5525Z" fill="#96D5AD"/>
<path d="M351.656 19.9171L350.868 2.57643L366.632 10.4586L351.656 19.9171Z" fill="#96D5AD"/>
<path d="M380.031 19.1289L393.431 2.57643L401.313 23.07L380.031 19.1289Z" fill="#96D5AD"/>
<path d="M421.807 21.4936L426.536 2.57643L440.724 13.6114L421.807 21.4936Z" fill="#96D5AD"/>
<path d="M459.641 19.9171L456.488 5.72929L469.1 10.4586L459.641 19.9171Z" fill="#96D5AD"/>
<path d="M2.47682 19.9171L0.900391 5.72929L16.6647 12.035L2.47682 19.9171Z" stroke="#96D5AD"/>
<path d="M32.429 17.5525L45.0404 1L52.9225 18.3407L32.429 17.5525Z" stroke="#96D5AD"/>
<path d="M69.475 19.9171L68.6868 2.57643L84.4511 9.67036L69.475 19.9171Z" stroke="#96D5AD"/>
<path d="M112.827 2.57643L120.709 23.07L99.4272 19.1289L112.827 2.57643Z" stroke="#96D5AD"/>
<path d="M158.543 15.1879L139.626 21.4936L143.567 2.57643L158.543 15.1879Z" stroke="#96D5AD"/>
<path d="M177.46 19.9171L174.308 5.72929L186.919 10.4586L177.46 19.9171Z" stroke="#96D5AD"/>
<path d="M208.989 23.07L211.354 2.57643L226.33 13.6114L208.989 23.07Z" stroke="#96D5AD"/>
<path d="M244.459 22.2818L250.764 2.57643L264.952 18.3407L244.459 22.2818Z" stroke="#96D5AD"/>
<path d="M283.869 20.7054L283.081 5.72929L298.845 12.035L283.869 20.7054Z" stroke="#96D5AD"/>
<path d="M314.61 17.5525L327.221 1L335.103 18.3407L314.61 17.5525Z" stroke="#96D5AD"/>
<path d="M351.656 19.9171L350.868 2.57643L366.632 10.4586L351.656 19.9171Z" stroke="#96D5AD"/>
<path d="M380.031 19.1289L393.431 2.57643L401.313 23.07L380.031 19.1289Z" stroke="#96D5AD"/>
<path d="M421.807 21.4936L426.536 2.57643L440.724 13.6114L421.807 21.4936Z" stroke="#96D5AD"/>
<path d="M459.641 19.9171L456.488 5.72929L469.1 10.4586L459.641 19.9171Z" stroke="#96D5AD"/>
</svg>
