<svg width="56" height="38" viewBox="0 0 56 38" fill="none" xmlns="http://www.w3.org/2000/svg">
<path d="M10.5518 30.508C10.5518 30.7853 9.89042 31.0093 8.56775 31.18C7.26642 31.3507 5.96508 31.436 4.66375 31.436C3.36242 31.436 2.53042 31.3613 2.16775 31.212C1.80508 31.0627 1.62375 30.828 1.62375 30.508V10.892C1.62375 10.3373 2.22108 9.84667 3.41575 9.42C4.63175 8.99333 6.02908 8.78 7.60775 8.78C8.90908 8.78 9.75175 9.036 10.1358 9.548C10.4131 9.91067 10.5518 10.2413 10.5518 10.54V15.82H10.8078C10.8078 15.7133 11.1278 14.828 11.7678 13.164C12.9838 10.028 13.8691 8.46 14.4238 8.46C15.4691 8.46 16.9411 8.76933 18.8398 9.388C19.7571 9.68667 20.5464 10.124 21.2078 10.7C21.8691 11.2547 22.1998 11.8733 22.1998 12.556C22.1998 12.9827 21.7624 13.8147 20.8878 15.052C20.0344 16.268 18.7331 17.9 16.9838 19.948C17.3891 20.3747 17.9011 20.9187 18.5198 21.58C19.1384 22.2413 19.9598 23.2333 20.9838 24.556C22.0291 25.8573 22.5518 26.7853 22.5518 27.34C22.5518 27.8947 22.0504 28.5453 21.0478 29.292C20.0451 30.0173 18.9784 30.6147 17.8478 31.084C16.7171 31.532 15.8744 31.756 15.3198 31.756C14.9571 31.756 14.4558 31.212 13.8158 30.124C13.1971 29.0147 12.4398 27.3613 11.5438 25.164L10.5518 26.348V30.508ZM33.2393 30.572C33.2393 30.8493 32.5886 31.0733 31.2873 31.244C30.0073 31.4147 28.7059 31.5 27.3833 31.5C26.0819 31.5 25.2393 31.4253 24.8553 31.276C24.4926 31.1267 24.3113 30.892 24.3113 30.572V10.892C24.3113 10.3587 24.9299 9.87867 26.1673 9.452C27.4046 9.004 28.7486 8.78 30.1993 8.78C32.2259 8.78 33.2393 9.26 33.2393 10.22V17.26H36.0873V10.892C36.0873 10.3587 36.7059 9.87867 37.9433 9.452C39.2019 9.004 40.5566 8.78 42.0073 8.78C44.0126 8.78 45.0153 9.26 45.0153 10.22V30.572C45.0153 30.8493 44.3646 31.0733 43.0633 31.244C41.7619 31.4147 40.4606 31.5 39.1593 31.5C37.8579 31.5 37.0153 31.4253 36.6313 31.276C36.2686 31.1267 36.0873 30.892 36.0873 30.572V23.244H33.2393V30.572ZM54.3773 28.492C54.3773 29.7507 54.0893 30.6147 53.5133 31.084C52.9373 31.5533 52.0839 31.788 50.9533 31.788C49.8439 31.788 49.0013 31.5533 48.4253 31.084C47.8493 30.6147 47.5613 29.7507 47.5613 28.492C47.5613 27.2333 47.8493 26.4013 48.4253 25.996C49.0226 25.5693 49.8759 25.356 50.9852 25.356C52.0946 25.356 52.9373 25.5693 53.5133 25.996C54.0893 26.4013 54.3773 27.2333 54.3773 28.492Z" fill="#FFF5F5"/>
<path d="M8.56775 31.18L8.05586 27.2129L8.04761 27.214L8.56775 31.18ZM2.16775 31.212L3.69075 27.5133H3.69075L2.16775 31.212ZM3.41575 9.42L2.0914 5.6456L2.08089 5.64929L2.0704 5.65303L3.41575 9.42ZM10.1358 9.548L6.93575 11.948L6.94696 11.9629L6.95832 11.9778L10.1358 9.548ZM10.5518 15.82H6.55175V19.82H10.5518V15.82ZM10.8078 15.82V19.82H14.8078V15.82H10.8078ZM11.7678 13.164L8.03829 11.7179L8.03437 11.7281L11.7678 13.164ZM18.8398 9.388L17.6005 13.1912L17.6014 13.1915L18.8398 9.388ZM21.2078 10.7L18.5806 13.7163L18.6087 13.7408L18.6373 13.7648L21.2078 10.7ZM20.8878 15.052L17.6214 12.743L17.6135 12.7543L20.8878 15.052ZM16.9838 19.948L13.9423 17.3501L11.6017 20.0903L14.0838 22.703L16.9838 19.948ZM18.5198 21.58L15.5987 24.3126L15.5987 24.3126L18.5198 21.58ZM20.9838 24.556L17.8209 27.0047L17.8428 27.0331L17.8653 27.061L20.9838 24.556ZM21.0478 29.292L23.3922 32.5329L23.4146 32.5167L23.4368 32.5002L21.0478 29.292ZM17.8478 31.084L19.3212 34.8027L19.3513 34.7908L19.3813 34.7784L17.8478 31.084ZM13.8158 30.124L10.3223 32.0723L10.3447 32.1124L10.368 32.1521L13.8158 30.124ZM11.5438 25.164L15.2477 23.6537L12.7411 17.5066L8.47767 22.5951L11.5438 25.164ZM10.5518 26.348L7.48567 23.7791L6.55175 24.8938V26.348H10.5518ZM6.55175 30.508C6.55175 28.7983 7.60904 27.8233 8.01133 27.5184C8.42684 27.2034 8.76852 27.0968 8.77252 27.0954C8.82557 27.0775 8.64588 27.1368 8.05586 27.2129L9.07964 35.1471C9.81228 35.0526 10.6246 34.9145 11.339 34.6726C11.6736 34.5592 12.2633 34.3339 12.8442 33.8936C13.4118 33.4633 14.5518 32.3563 14.5518 30.508H6.55175ZM8.04761 27.214C6.91726 27.3622 5.78967 27.436 4.66375 27.436V35.436C6.1405 35.436 7.61558 35.3391 9.08789 35.146L8.04761 27.214ZM4.66375 27.436C4.07462 27.436 3.67214 27.4185 3.42129 27.396C3.2972 27.3849 3.25205 27.3761 3.2649 27.3785C3.27355 27.3801 3.31327 27.3878 3.37641 27.405C3.43667 27.4214 3.54776 27.4544 3.69075 27.5133L0.644751 34.9107C1.42157 35.2306 2.23636 35.3218 2.70621 35.364C3.28736 35.4161 3.95155 35.436 4.66375 35.436V27.436ZM3.69075 27.5133C3.9546 27.6219 4.47081 27.8906 4.92489 28.4782C5.41932 29.1181 5.62375 29.8573 5.62375 30.508H-2.37625C-2.37625 31.4787 -2.08115 32.4953 -1.40539 33.3698C-0.769979 34.1921 0.0182382 34.6527 0.644751 34.9107L3.69075 27.5133ZM5.62375 30.508V10.892H-2.37625V30.508H5.62375ZM5.62375 10.892C5.62375 12.2314 4.85469 12.9985 4.61071 13.1989C4.39826 13.3734 4.35631 13.3315 4.7611 13.187L2.0704 5.65303C1.28053 5.93513 0.342578 6.35191 -0.467208 7.01709C-1.30852 7.70817 -2.37625 8.99797 -2.37625 10.892H5.62375ZM4.7401 13.1944C5.44704 12.9464 6.38219 12.78 7.60775 12.78V4.78C5.67598 4.78 3.81646 5.04031 2.0914 5.6456L4.7401 13.1944ZM7.60775 12.78C8.03366 12.78 8.14209 12.8263 8.05303 12.7993C7.96045 12.7712 7.41424 12.586 6.93575 11.948L13.3357 7.148C12.4733 5.99802 11.3137 5.42884 10.3785 5.14472C9.44674 4.86166 8.48317 4.78 7.60775 4.78V12.78ZM6.95832 11.9778C6.94307 11.9579 6.85191 11.8365 6.75897 11.6149C6.66321 11.3865 6.55175 11.017 6.55175 10.54H14.5518C14.5518 9.00705 13.8573 7.8298 13.3132 7.1182L6.95832 11.9778ZM6.55175 10.54V15.82H14.5518V10.54H6.55175ZM10.5518 19.82H10.8078V11.82H10.5518V19.82ZM14.8078 15.82C14.8078 16.0463 14.788 16.2246 14.7759 16.3185C14.7625 16.4231 14.7473 16.507 14.7368 16.5605C14.7163 16.665 14.6964 16.7412 14.6888 16.7699C14.6729 16.8297 14.6639 16.8551 14.6746 16.822C14.6933 16.7639 14.735 16.6421 14.8096 16.4357C14.9555 16.0319 15.1839 15.4247 15.5011 14.5999L8.03437 11.7281C7.71158 12.5673 7.45997 13.2348 7.28594 13.7163C7.20053 13.9526 7.12217 14.1761 7.06092 14.366C7.03159 14.4569 6.99256 14.5819 6.95668 14.7171C6.93906 14.7835 6.91174 14.8912 6.88625 15.0212C6.87142 15.0968 6.80775 15.4145 6.80775 15.82H14.8078ZM15.4972 14.6101C16.0843 13.096 16.5274 12.133 16.8269 11.6027C16.9859 11.321 17.0119 11.3289 16.8919 11.4596C16.8282 11.529 16.6323 11.7337 16.2958 11.9406C15.9582 12.1483 15.3098 12.46 14.4238 12.46V4.46C12.492 4.46 11.3126 5.70755 10.9996 6.04838C10.5196 6.57112 10.1442 7.16705 9.86062 7.66933C9.27472 8.707 8.6672 10.096 8.03831 11.7179L15.4972 14.6101ZM14.4238 12.46C14.8222 12.46 15.8074 12.6069 17.6005 13.1912L20.079 5.58481C18.0747 4.93173 16.116 4.46 14.4238 4.46V12.46ZM17.6014 13.1915C18.059 13.3405 18.3635 13.5272 18.5806 13.7163L23.8349 7.68367C22.7293 6.72079 21.4551 6.03286 20.0781 5.58451L17.6014 13.1915ZM18.6373 13.7648C18.6639 13.7871 18.548 13.6975 18.424 13.4655C18.2882 13.2114 18.1998 12.891 18.1998 12.556H26.1998C26.1998 10.3893 25.0862 8.73227 23.7782 7.63523L18.6373 13.7648ZM18.1998 12.556C18.1998 12.2766 18.2345 12.0584 18.2623 11.9239C18.291 11.7858 18.3223 11.688 18.3393 11.6392C18.3706 11.5491 18.3821 11.5419 18.3311 11.6389C18.2845 11.7276 18.2059 11.8651 18.0835 12.0581C17.9626 12.2488 17.81 12.4763 17.6214 12.7431L24.1541 17.3609C24.6394 16.6743 25.0784 15.9966 25.4124 15.3611C25.6526 14.9041 26.1998 13.8298 26.1998 12.556H18.1998ZM17.6135 12.7543C16.869 13.8152 15.6638 15.3346 13.9423 17.3501L20.0252 22.5459C21.8023 20.4654 23.1998 18.7208 24.162 17.3497L17.6135 12.7543ZM14.0838 22.703C14.4793 23.1194 14.9837 23.6553 15.5987 24.3126L21.4408 18.8474C20.8185 18.1821 20.2988 17.6299 19.8838 17.193L14.0838 22.703ZM15.5987 24.3126C16.0892 24.837 16.8209 25.713 17.8209 27.0047L24.1466 22.1073C23.0986 20.7536 22.1876 19.6456 21.4408 18.8474L15.5987 24.3126ZM17.8653 27.061C18.0847 27.3341 18.2603 27.5674 18.398 27.7632C18.5372 27.9612 18.6244 28.102 18.6745 28.1909C18.7284 28.2866 18.7148 28.2789 18.6813 28.1839C18.6631 28.1323 18.6329 28.0375 18.6062 27.9052C18.5797 27.7738 18.5518 27.581 18.5518 27.34H26.5518C26.5518 25.9923 25.9859 24.8704 25.645 24.2651C25.2341 23.5354 24.6943 22.788 24.1022 22.051L17.8653 27.061ZM18.5518 27.34C18.5518 26.3989 18.9672 25.8545 19.0072 25.8026C19.0641 25.7288 19.0023 25.8279 18.6587 26.0838L23.4368 32.5002C24.0958 32.0094 24.786 31.4099 25.3443 30.6854C25.8856 29.9828 26.5518 28.8358 26.5518 27.34H18.5518ZM18.7033 26.0511C17.9496 26.5963 17.1548 27.0407 16.3142 27.3896L19.3813 34.7784C20.8021 34.1886 22.1405 33.4384 23.3922 32.5329L18.7033 26.0511ZM16.3743 27.3653C15.9025 27.5522 15.5642 27.6627 15.3401 27.7222C15.231 27.7513 15.1722 27.7619 15.1566 27.7644C15.1373 27.7675 15.1979 27.756 15.3198 27.756V35.756C16.6931 35.756 18.1476 35.2678 19.3212 34.8027L16.3743 27.3653ZM15.3198 27.756C16.2313 27.756 16.8714 28.0918 17.153 28.2691C17.4444 28.4525 17.5964 28.619 17.6132 28.6373C17.6431 28.6698 17.5251 28.5407 17.2635 28.0959L10.368 32.1521C10.7464 32.7953 11.199 33.4822 11.7303 34.0587C11.9978 34.349 12.3831 34.7195 12.8905 35.0389C13.3881 35.3522 14.2269 35.756 15.3198 35.756V27.756ZM17.3092 28.1757C16.8102 27.2809 16.1252 25.8058 15.2477 23.6537L7.83985 26.6743C8.75428 28.9169 9.584 30.7484 10.3223 32.0723L17.3092 28.1757ZM8.47767 22.5951L7.48567 23.7791L13.6178 28.9169L14.6098 27.7329L8.47767 22.5951ZM6.55175 26.348V30.508H14.5518V26.348H6.55175ZM31.2873 31.244L30.7671 27.278L30.7586 27.2791L31.2873 31.244ZM24.8552 31.276L23.3323 34.9747L23.3687 34.9897L23.4055 35.004L24.8552 31.276ZM26.1672 9.452L27.4712 13.2335L27.5002 13.2235L27.529 13.2131L26.1672 9.452ZM33.2393 17.26H29.2393V21.26H33.2393V17.26ZM36.0872 17.26V21.26H40.0872V17.26H36.0872ZM37.9433 9.452L39.2472 13.2335L39.2659 13.227L39.2845 13.2204L37.9433 9.452ZM43.0633 31.244L43.5834 35.21H43.5834L43.0633 31.244ZM36.6312 31.276L35.1082 34.9747L35.1447 34.9897L35.1815 35.004L36.6312 31.276ZM36.0872 23.244H40.0872V19.244H36.0872V23.244ZM33.2393 23.244V19.244H29.2393V23.244H33.2393ZM29.2393 30.572C29.2393 28.8909 30.2645 27.9184 30.6759 27.6014C31.0932 27.2799 31.4393 27.1693 31.4492 27.1658C31.5123 27.1441 31.345 27.2022 30.7671 27.278L31.8074 35.21C32.5308 35.1152 33.3395 34.9759 34.0533 34.7302C34.3886 34.6147 34.9786 34.3854 35.5586 33.9386C36.1327 33.4963 37.2393 32.3917 37.2393 30.572H29.2393ZM30.7586 27.2791C29.658 27.4258 28.5334 27.5 27.3833 27.5V35.5C28.8784 35.5 30.3565 35.4035 31.8159 35.2089L30.7586 27.2791ZM27.3833 27.5C26.7951 27.5 26.3877 27.4826 26.1283 27.4596C26.0002 27.4483 25.9462 27.4388 25.9478 27.4391C25.9506 27.4396 25.9818 27.4453 26.0346 27.4591C26.0853 27.4724 26.1805 27.4995 26.305 27.548L23.4055 35.004C24.1527 35.2946 24.9333 35.3851 25.4222 35.4284C26.0055 35.4801 26.6701 35.5 27.3833 35.5V27.5ZM26.3783 27.5773C26.6421 27.6859 27.1583 27.9546 27.6124 28.5422C28.1068 29.1821 28.3113 29.9213 28.3113 30.572H20.3113C20.3113 31.5427 20.6063 32.5593 21.2821 33.4338C21.9175 34.2561 22.7057 34.7167 23.3323 34.9747L26.3783 27.5773ZM28.3113 30.572V10.892H20.3113V30.572H28.3113ZM28.3113 10.892C28.3113 12.3588 27.4193 13.1433 27.2272 13.2923C27.0354 13.4412 27.0277 13.3864 27.4712 13.2335L24.8633 5.67051C24.0694 5.94425 23.1338 6.34281 22.3233 6.97166C21.5125 7.60067 20.3113 8.89185 20.3113 10.892H28.3113ZM27.529 13.2131C28.2873 12.9385 29.1655 12.78 30.1992 12.78V4.78C28.3316 4.78 26.5219 5.06949 24.8055 5.69094L27.529 13.2131ZM30.1992 12.78C30.5584 12.78 30.7846 12.802 30.9054 12.8211C31.038 12.842 30.9598 12.8463 30.7669 12.7549C30.5634 12.6586 30.1434 12.4112 29.778 11.892C29.3873 11.3368 29.2393 10.7258 29.2393 10.22H37.2393C37.2393 9.23417 36.9645 8.20324 36.3205 7.28803C35.7017 6.40878 34.9018 5.86145 34.1916 5.52505C32.8766 4.90218 31.4013 4.78 30.1992 4.78V12.78ZM29.2393 10.22V17.26H37.2393V10.22H29.2393ZM33.2393 21.26H36.0872V13.26H33.2393V21.26ZM40.0872 17.26V10.892H32.0872V17.26H40.0872ZM40.0872 10.892C40.0872 12.3588 39.1953 13.1433 39.0032 13.2923C38.8114 13.4412 38.8037 13.3864 39.2472 13.2335L36.6393 5.67051C35.8454 5.94425 34.9098 6.34281 34.0993 6.97166C33.2885 7.60067 32.0872 8.89185 32.0872 10.892H40.0872ZM39.2845 13.2204C40.0772 12.9383 40.9744 12.78 42.0073 12.78V4.78C40.1388 4.78 38.3267 5.0697 36.602 5.68359L39.2845 13.2204ZM42.0073 12.78C42.3594 12.78 42.5787 12.8018 42.6929 12.82C42.8187 12.8401 42.7342 12.8427 42.5361 12.7479C42.3263 12.6475 41.9069 12.3959 41.5446 11.8757C41.1589 11.3217 41.0153 10.7166 41.0153 10.22H49.0153C49.0153 9.2434 48.7463 8.21834 48.1099 7.30432C47.497 6.42409 46.7015 5.87252 45.9904 5.53211C44.6754 4.90256 43.2016 4.78 42.0073 4.78V12.78ZM41.0153 10.22V30.572H49.0153V10.22H41.0153ZM41.0153 30.572C41.0153 28.8909 42.0405 27.9184 42.4519 27.6014C42.8692 27.2799 43.2153 27.1693 43.2252 27.1658C43.2883 27.1441 43.121 27.2022 42.5431 27.278L43.5834 35.21C44.3068 35.1152 45.1155 34.9759 45.8293 34.7302C46.1646 34.6147 46.7546 34.3854 47.3346 33.9386C47.9087 33.4963 49.0153 32.3917 49.0153 30.572H41.0153ZM42.5431 27.278C41.4128 27.4262 40.2852 27.5 39.1592 27.5V35.5C40.636 35.5 42.1111 35.4031 43.5834 35.21L42.5431 27.278ZM39.1592 27.5C38.5711 27.5 38.1637 27.4826 37.9043 27.4596C37.7762 27.4483 37.7222 27.4388 37.7238 27.4391C37.7266 27.4396 37.7578 27.4453 37.8106 27.4591C37.8613 27.4724 37.9565 27.4995 38.081 27.548L35.1815 35.004C35.9287 35.2946 36.7093 35.3851 37.1982 35.4284C37.7815 35.4801 38.4461 35.5 39.1592 35.5V27.5ZM38.1543 27.5773C38.4181 27.6859 38.9343 27.9546 39.3884 28.5422C39.8828 29.1821 40.0872 29.9213 40.0872 30.572H32.0872C32.0872 31.5427 32.3823 32.5593 33.0581 33.4338C33.6935 34.2561 34.4817 34.7167 35.1082 34.9747L38.1543 27.5773ZM40.0872 30.572V23.244H32.0872V30.572H40.0872ZM36.0872 19.244H33.2393V27.244H36.0872V19.244ZM29.2393 23.244V30.572H37.2393V23.244H29.2393ZM53.5133 31.084L50.9866 27.9831L50.9866 27.9831L53.5133 31.084ZM48.4253 31.084L45.8986 34.1849L48.4253 31.084ZM48.4253 25.996L50.7272 29.2672L50.7387 29.2591L50.7502 29.2509L48.4253 25.996ZM53.5133 25.996L51.1323 29.2102L51.1715 29.2392L51.2113 29.2672L53.5133 25.996ZM50.3773 28.492C50.3773 28.8433 50.3337 28.9176 50.3665 28.8191C50.4081 28.6942 50.5659 28.3258 50.9866 27.9831L56.0399 34.1849C58.033 32.561 58.3773 30.1438 58.3773 28.492H50.3773ZM50.9866 27.9831C51.2037 27.8061 51.3722 27.7575 51.3806 27.7552C51.3839 27.7543 51.3528 27.763 51.2794 27.7717C51.2061 27.7804 51.099 27.788 50.9533 27.788V35.788C52.5459 35.788 54.4613 35.4712 56.0399 34.1849L50.9866 27.9831ZM50.9533 27.788C50.8156 27.788 50.7157 27.7806 50.6487 27.7726C50.5817 27.7645 50.5555 27.7567 50.5623 27.7586C50.5793 27.7633 50.7435 27.8132 50.9519 27.9831L45.8986 34.1849C47.4659 35.462 49.3599 35.788 50.9533 35.788V27.788ZM50.9519 27.9831C51.3726 28.3258 51.5304 28.6942 51.572 28.8191C51.6048 28.9176 51.5612 28.8433 51.5612 28.492H43.5612C43.5612 30.1438 43.9055 32.561 45.8986 34.1849L50.9519 27.9831ZM51.5612 28.492C51.5612 28.1331 51.6068 28.0891 51.5572 28.2324C51.496 28.4092 51.2807 28.8777 50.7272 29.2672L46.1233 22.7248C43.8701 24.3104 43.5612 26.9255 43.5612 28.492H51.5612ZM50.7502 29.2509C50.5683 29.3809 50.4493 29.4051 50.4834 29.3966C50.5229 29.3867 50.6768 29.356 50.9852 29.356V21.356C49.4439 21.356 47.6425 21.6395 46.1003 22.7411L50.7502 29.2509ZM50.9852 29.356C51.1357 29.356 51.2501 29.3633 51.3327 29.3723C51.4154 29.3814 51.458 29.3913 51.4676 29.3937C51.4884 29.399 51.3419 29.3655 51.1323 29.2102L55.8942 22.7818C54.3442 21.6336 52.5119 21.356 50.9852 21.356V29.356ZM51.2113 29.2672C50.6578 28.8777 50.4425 28.4092 50.3813 28.2324C50.3317 28.0891 50.3773 28.1331 50.3773 28.492H58.3773C58.3773 26.9255 58.0684 24.3104 55.8152 22.7248L51.2113 29.2672Z" fill="#EF758A"/>
</svg>
