<svg width="77" height="78" viewBox="0 0 77 78" fill="none" xmlns="http://www.w3.org/2000/svg">
<g filter="url(#filter0_d_897_4356)">
<rect x="4" y="4.06592" width="69" height="69" rx="15" fill="#F8EEBB"/>
<path d="M20.1 29.7659C20.1 27.0044 22.3386 24.7659 25.1 24.7659H45.8745C48.636 24.7659 50.8745 27.0044 50.8745 29.7659V41.308C50.8745 44.0695 48.636 46.308 45.8745 46.308H25.1C22.3386 46.308 20.1 44.0695 20.1 41.308V29.7659Z" fill="#F5F2E3" stroke="#998259" stroke-width="4"/>
<path d="M49.6435 25.9966L37.2298 37.618C36.0762 38.6979 34.2828 38.6979 33.1292 37.618L20.7155 25.9966" stroke="#998259" stroke-width="4"/>
<path d="M40.5205 44.8229L50.2714 35.0721C52.224 33.1194 55.3898 33.1194 57.3425 35.0721L59.6769 37.4065C61.6296 39.3592 61.6296 42.525 59.6769 44.4776L49.9261 54.2285L40.5205 44.8229Z" fill="#4E3C30"/>
<path d="M40.5083 44.8283L49.9446 54.2357L43.5112 56.7983C37.299 58.5167 36.2597 57.5082 38.2507 51.5469L40.5083 44.8283Z" fill="#FFCB49"/>
<path d="M38.2985 51.4097L43.6522 56.7543C37.2383 58.5944 36.1803 57.5683 38.2985 51.4097Z" fill="#493D2D"/>
</g>
<defs>
<filter id="filter0_d_897_4356" x="0" y="0.065918" width="77" height="77" filterUnits="userSpaceOnUse" color-interpolation-filters="sRGB">
<feFlood flood-opacity="0" result="BackgroundImageFix"/>
<feColorMatrix in="SourceAlpha" type="matrix" values="0 0 0 0 0 0 0 0 0 0 0 0 0 0 0 0 0 0 127 0" result="hardAlpha"/>
<feOffset/>
<feGaussianBlur stdDeviation="2"/>
<feComposite in2="hardAlpha" operator="out"/>
<feColorMatrix type="matrix" values="0 0 0 0 0 0 0 0 0 0 0 0 0 0 0 0 0 0 0.25 0"/>
<feBlend mode="normal" in2="BackgroundImageFix" result="effect1_dropShadow_897_4356"/>
<feBlend mode="normal" in="SourceGraphic" in2="effect1_dropShadow_897_4356" result="shape"/>
</filter>
</defs>
</svg>
