<svg width="77" height="78" viewBox="0 0 77 78" fill="none" xmlns="http://www.w3.org/2000/svg">
<g filter="url(#filter0_d_897_4353)">
<rect x="4" y="4.06592" width="69" height="69" rx="15" fill="#2966BC"/>
<path d="M29.835 29.4465C29.8883 30.2732 29.635 30.9798 29.075 31.5665C28.5417 32.1265 27.8617 32.4065 27.035 32.4065C26.2083 32.4065 25.4617 32.1798 24.795 31.7265C24.155 31.2732 23.835 30.5798 23.835 29.6465C23.835 28.8198 24.0883 28.0998 24.595 27.4865C25.1283 26.8465 25.8083 26.5265 26.635 26.5265C27.4617 26.5265 28.195 26.7798 28.835 27.2865C29.475 27.7932 29.8083 28.5132 29.835 29.4465ZM32.355 51.1265H23.195L23.075 47.5265L25.835 47.4065L25.955 38.1265L22.515 37.9665L22.475 34.2065L30.035 34.0065L30.075 47.2465L32.355 47.3265V51.1265ZM53.3594 51.5265L46.9994 51.4865C47.0794 47.2998 47.1194 44.2865 47.1194 42.4465C47.1194 40.5798 47.1194 39.6465 47.1194 39.6465C47.1194 39.0065 46.8927 38.4732 46.4394 38.0465C45.986 37.6198 45.426 37.3665 44.7594 37.2865C44.1194 37.2065 43.4527 37.3265 42.7594 37.6465C42.066 37.9398 41.506 38.4865 41.0794 39.2865L40.8794 51.0865L34.3594 51.1265V48.2465L36.5994 48.1665L36.6794 35.1665L34.0394 35.2865L33.9594 32.3665L40.9994 32.2465V34.9265C41.6127 34.2332 42.3327 33.7665 43.1594 33.5265C44.0127 33.2865 44.7727 33.1532 45.4394 33.1265C46.426 33.0732 47.2927 33.2198 48.0394 33.5665C48.786 33.9132 49.4127 34.3665 49.9194 34.9265C50.426 35.4865 50.8127 36.1132 51.0794 36.8065C51.346 37.4732 51.4794 38.1132 51.4794 38.7265C51.4794 38.7265 51.4794 39.5398 51.4794 41.1665C51.4794 42.7665 51.466 44.9798 51.4394 47.8065L53.3594 47.6865V51.5265Z" fill="white"/>
</g>
<defs>
<filter id="filter0_d_897_4353" x="0" y="0.065918" width="77" height="77" filterUnits="userSpaceOnUse" color-interpolation-filters="sRGB">
<feFlood flood-opacity="0" result="BackgroundImageFix"/>
<feColorMatrix in="SourceAlpha" type="matrix" values="0 0 0 0 0 0 0 0 0 0 0 0 0 0 0 0 0 0 127 0" result="hardAlpha"/>
<feOffset/>
<feGaussianBlur stdDeviation="2"/>
<feComposite in2="hardAlpha" operator="out"/>
<feColorMatrix type="matrix" values="0 0 0 0 0 0 0 0 0 0 0 0 0 0 0 0 0 0 0.25 0"/>
<feBlend mode="normal" in2="BackgroundImageFix" result="effect1_dropShadow_897_4353"/>
<feBlend mode="normal" in="SourceGraphic" in2="effect1_dropShadow_897_4353" result="shape"/>
</filter>
</defs>
</svg>
